<svg id="visual" viewBox="0 0 900 600" width="900" height="600" xmlns="http://www.w3.org/2000/svg" xmlns:xlink="http://www.w3.org/1999/xlink" version="1.1"><g stroke-width="1" stroke-linejoin="bevel"><path d="M503 320L519 429L628 392Z" fill="#527ca5" stroke="#527ca5"></path><path d="M628 392L613 279L503 320Z" fill="#527ca5" stroke="#527ca5"></path><path d="M628 392L665 302L613 279Z" fill="#32618c" stroke="#32618c"></path><path d="M385 433L476 483L519 429Z" fill="#356694" stroke="#356694"></path><path d="M561 531L686 437L628 392Z" fill="#356694" stroke="#356694"></path><path d="M561 531L628 392L519 429Z" fill="#5c83aa" stroke="#5c83aa"></path><path d="M628 392L686 437L665 302Z" fill="#49759f" stroke="#49759f"></path><path d="M613 279L536 212L503 320Z" fill="#2e5b84" stroke="#2e5b84"></path><path d="M592 193L536 212L613 279Z" fill="#356694" stroke="#356694"></path><path d="M476 483L561 531L519 429Z" fill="#527ca5" stroke="#527ca5"></path><path d="M676 177L592 193L613 279Z" fill="#356694" stroke="#356694"></path><path d="M386 262L385 433L503 320Z" fill="#356694" stroke="#356694"></path><path d="M503 320L385 433L519 429Z" fill="#3f6d9a" stroke="#3f6d9a"></path><path d="M510 600L570 600L561 531Z" fill="#527ca5" stroke="#527ca5"></path><path d="M372 217L386 262L536 212Z" fill="#356694" stroke="#356694"></path><path d="M536 212L386 262L503 320Z" fill="#254b6c" stroke="#254b6c"></path><path d="M561 531L731 488L686 437Z" fill="#285074" stroke="#285074"></path><path d="M686 437L785 320L665 302Z" fill="#5c83aa" stroke="#5c83aa"></path><path d="M385 433L400 516L476 483Z" fill="#5c83aa" stroke="#5c83aa"></path><path d="M782 181L676 177L665 302Z" fill="#527ca5" stroke="#527ca5"></path><path d="M665 302L676 177L613 279Z" fill="#285074" stroke="#285074"></path><path d="M830 382L785 320L686 437Z" fill="#3f6d9a" stroke="#3f6d9a"></path><path d="M386 262L329 400L385 433Z" fill="#356694" stroke="#356694"></path><path d="M385 433L295 499L400 516Z" fill="#658bb0" stroke="#658bb0"></path><path d="M510 600L561 531L476 483Z" fill="#254b6c" stroke="#254b6c"></path><path d="M561 531L693 600L731 488Z" fill="#356694" stroke="#356694"></path><path d="M676 177L567 131L592 193Z" fill="#658bb0" stroke="#658bb0"></path><path d="M592 193L567 131L536 212Z" fill="#49759f" stroke="#49759f"></path><path d="M423 600L510 600L476 483Z" fill="#658bb0" stroke="#658bb0"></path><path d="M488 110L372 217L536 212Z" fill="#527ca5" stroke="#527ca5"></path><path d="M386 262L274 315L329 400Z" fill="#2b567c" stroke="#2b567c"></path><path d="M567 131L488 110L536 212Z" fill="#2e5b84" stroke="#2e5b84"></path><path d="M570 600L693 600L561 531Z" fill="#2b567c" stroke="#2b567c"></path><path d="M276 600L423 600L400 516Z" fill="#285074" stroke="#285074"></path><path d="M400 516L423 600L476 483Z" fill="#527ca5" stroke="#527ca5"></path><path d="M731 488L830 382L686 437Z" fill="#5c83aa" stroke="#5c83aa"></path><path d="M783 527L830 382L731 488Z" fill="#527ca5" stroke="#527ca5"></path><path d="M693 600L783 527L731 488Z" fill="#285074" stroke="#285074"></path><path d="M782 181L711 130L676 177Z" fill="#32618c" stroke="#32618c"></path><path d="M676 177L711 130L567 131Z" fill="#2e5b84" stroke="#2e5b84"></path><path d="M488 0L430 73L488 110Z" fill="#285074" stroke="#285074"></path><path d="M782 181L665 302L785 320Z" fill="#2e5b84" stroke="#2e5b84"></path><path d="M310 204L274 315L386 262Z" fill="#2b567c" stroke="#2b567c"></path><path d="M329 400L295 499L385 433Z" fill="#285074" stroke="#285074"></path><path d="M900 206L782 181L785 320Z" fill="#658bb0" stroke="#658bb0"></path><path d="M233 425L295 499L329 400Z" fill="#49759f" stroke="#49759f"></path><path d="M372 217L310 204L386 262Z" fill="#3f6d9a" stroke="#3f6d9a"></path><path d="M430 73L310 204L372 217Z" fill="#49759f" stroke="#49759f"></path><path d="M488 0L488 110L567 131Z" fill="#32618c" stroke="#32618c"></path><path d="M488 110L430 73L372 217Z" fill="#356694" stroke="#356694"></path><path d="M782 181L775 118L711 130Z" fill="#32618c" stroke="#32618c"></path><path d="M711 130L619 0L567 131Z" fill="#527ca5" stroke="#527ca5"></path><path d="M900 109L775 118L782 181Z" fill="#49759f" stroke="#49759f"></path><path d="M274 315L233 425L329 400Z" fill="#5c83aa" stroke="#5c83aa"></path><path d="M136 382L233 425L274 315Z" fill="#32618c" stroke="#32618c"></path><path d="M900 514L900 406L830 382Z" fill="#32618c" stroke="#32618c"></path><path d="M830 382L900 317L785 320Z" fill="#658bb0" stroke="#658bb0"></path><path d="M900 406L900 317L830 382Z" fill="#32618c" stroke="#32618c"></path><path d="M233 425L221 484L295 499Z" fill="#285074" stroke="#285074"></path><path d="M295 499L276 600L400 516Z" fill="#658bb0" stroke="#658bb0"></path><path d="M693 600L835 600L783 527Z" fill="#2e5b84" stroke="#2e5b84"></path><path d="M783 527L900 514L830 382Z" fill="#32618c" stroke="#32618c"></path><path d="M221 484L276 600L295 499Z" fill="#5c83aa" stroke="#5c83aa"></path><path d="M835 600L900 514L783 527Z" fill="#2b567c" stroke="#2b567c"></path><path d="M707 0L619 0L711 130Z" fill="#658bb0" stroke="#658bb0"></path><path d="M619 0L488 0L567 131Z" fill="#3f6d9a" stroke="#3f6d9a"></path><path d="M167 231L274 315L310 204Z" fill="#5c83aa" stroke="#5c83aa"></path><path d="M900 317L900 206L785 320Z" fill="#5c83aa" stroke="#5c83aa"></path><path d="M775 118L707 0L711 130Z" fill="#285074" stroke="#285074"></path><path d="M831 0L707 0L775 118Z" fill="#285074" stroke="#285074"></path><path d="M265 66L310 204L430 73Z" fill="#527ca5" stroke="#527ca5"></path><path d="M167 231L170 278L274 315Z" fill="#527ca5" stroke="#527ca5"></path><path d="M233 425L136 382L221 484Z" fill="#254b6c" stroke="#254b6c"></path><path d="M488 0L378 0L430 73Z" fill="#527ca5" stroke="#527ca5"></path><path d="M835 600L900 600L900 514Z" fill="#254b6c" stroke="#254b6c"></path><path d="M165 138L167 231L310 204Z" fill="#285074" stroke="#285074"></path><path d="M378 0L265 66L430 73Z" fill="#32618c" stroke="#32618c"></path><path d="M170 278L136 382L274 315Z" fill="#254b6c" stroke="#254b6c"></path><path d="M221 484L195 600L276 600Z" fill="#2b567c" stroke="#2b567c"></path><path d="M78 327L136 382L170 278Z" fill="#32618c" stroke="#32618c"></path><path d="M900 206L900 109L782 181Z" fill="#49759f" stroke="#49759f"></path><path d="M75 464L195 600L221 484Z" fill="#5c83aa" stroke="#5c83aa"></path><path d="M378 0L303 0L265 66Z" fill="#32618c" stroke="#32618c"></path><path d="M265 66L165 138L310 204Z" fill="#32618c" stroke="#32618c"></path><path d="M133 102L165 138L265 66Z" fill="#3f6d9a" stroke="#3f6d9a"></path><path d="M79 222L78 327L170 278Z" fill="#5c83aa" stroke="#5c83aa"></path><path d="M900 109L831 0L775 118Z" fill="#49759f" stroke="#49759f"></path><path d="M79 222L170 278L167 231Z" fill="#658bb0" stroke="#658bb0"></path><path d="M136 382L75 464L221 484Z" fill="#527ca5" stroke="#527ca5"></path><path d="M78 327L75 464L136 382Z" fill="#2b567c" stroke="#2b567c"></path><path d="M900 109L900 0L831 0Z" fill="#32618c" stroke="#32618c"></path><path d="M165 138L79 222L167 231Z" fill="#2b567c" stroke="#2b567c"></path><path d="M78 327L0 422L75 464Z" fill="#356694" stroke="#356694"></path><path d="M133 102L79 222L165 138Z" fill="#2b567c" stroke="#2b567c"></path><path d="M201 0L133 102L265 66Z" fill="#527ca5" stroke="#527ca5"></path><path d="M303 0L201 0L265 66Z" fill="#254b6c" stroke="#254b6c"></path><path d="M75 464L83 600L195 600Z" fill="#254b6c" stroke="#254b6c"></path><path d="M0 277L0 422L78 327Z" fill="#2b567c" stroke="#2b567c"></path><path d="M75 464L0 500L83 600Z" fill="#356694" stroke="#356694"></path><path d="M0 191L0 277L79 222Z" fill="#49759f" stroke="#49759f"></path><path d="M79 222L0 277L78 327Z" fill="#2b567c" stroke="#2b567c"></path><path d="M0 191L79 222L133 102Z" fill="#285074" stroke="#285074"></path><path d="M0 422L0 500L75 464Z" fill="#5c83aa" stroke="#5c83aa"></path><path d="M0 82L0 191L133 102Z" fill="#5c83aa" stroke="#5c83aa"></path><path d="M201 0L91 0L133 102Z" fill="#658bb0" stroke="#658bb0"></path><path d="M0 500L0 600L83 600Z" fill="#527ca5" stroke="#527ca5"></path><path d="M91 0L0 82L133 102Z" fill="#49759f" stroke="#49759f"></path><path d="M91 0L0 0L0 82Z" fill="#5c83aa" stroke="#5c83aa"></path></g></svg>