<svg id="visual" viewBox="0 0 900 600" width="900" height="600" xmlns="http://www.w3.org/2000/svg" xmlns:xlink="http://www.w3.org/1999/xlink" version="1.1"><g stroke-width="1" stroke-linejoin="bevel"><path d="M467 290L495 237L387 226Z" fill="#007f4f" stroke="#007f4f"></path><path d="M387 226L374 303L467 290Z" fill="#013226" stroke="#013226"></path><path d="M495 237L467 134L387 226Z" fill="#008c54" stroke="#008c54"></path><path d="M425 124L328 229L387 226Z" fill="#008c54" stroke="#008c54"></path><path d="M387 226L328 229L374 303Z" fill="#007149" stroke="#007149"></path><path d="M467 134L425 124L387 226Z" fill="#001c16" stroke="#001c16"></path><path d="M412 401L508 371L467 290Z" fill="#007149" stroke="#007149"></path><path d="M467 290L570 327L495 237Z" fill="#02271e" stroke="#02271e"></path><path d="M508 371L570 327L467 290Z" fill="#006443" stroke="#006443"></path><path d="M495 237L616 208L467 134Z" fill="#02271e" stroke="#02271e"></path><path d="M274 410L412 401L374 303Z" fill="#003e2e" stroke="#003e2e"></path><path d="M374 303L412 401L467 290Z" fill="#007f4f" stroke="#007f4f"></path><path d="M570 327L616 208L495 237Z" fill="#02271e" stroke="#02271e"></path><path d="M328 229L270 326L374 303Z" fill="#007149" stroke="#007149"></path><path d="M368 0L284 86L425 124Z" fill="#006443" stroke="#006443"></path><path d="M425 124L284 86L328 229Z" fill="#004a35" stroke="#004a35"></path><path d="M328 229L223 283L270 326Z" fill="#013226" stroke="#013226"></path><path d="M214 215L223 283L328 229Z" fill="#008c54" stroke="#008c54"></path><path d="M570 327L661 287L616 208Z" fill="#007149" stroke="#007149"></path><path d="M670 362L661 287L570 327Z" fill="#00573c" stroke="#00573c"></path><path d="M284 86L214 215L328 229Z" fill="#007149" stroke="#007149"></path><path d="M714 60L591 62L616 208Z" fill="#008c54" stroke="#008c54"></path><path d="M616 208L591 62L467 134Z" fill="#008c54" stroke="#008c54"></path><path d="M519 0L368 0L425 124Z" fill="#00573c" stroke="#00573c"></path><path d="M270 326L274 410L374 303Z" fill="#008c54" stroke="#008c54"></path><path d="M190 421L274 410L270 326Z" fill="#003e2e" stroke="#003e2e"></path><path d="M434 498L481 477L412 401Z" fill="#013226" stroke="#013226"></path><path d="M412 401L481 477L508 371Z" fill="#008c54" stroke="#008c54"></path><path d="M508 371L623 418L570 327Z" fill="#02271e" stroke="#02271e"></path><path d="M519 0L425 124L467 134Z" fill="#004a35" stroke="#004a35"></path><path d="M607 472L623 418L508 371Z" fill="#003e2e" stroke="#003e2e"></path><path d="M591 62L519 0L467 134Z" fill="#013226" stroke="#013226"></path><path d="M274 410L434 498L412 401Z" fill="#001c16" stroke="#001c16"></path><path d="M481 477L607 472L508 371Z" fill="#007149" stroke="#007149"></path><path d="M623 418L670 362L570 327Z" fill="#007f4f" stroke="#007f4f"></path><path d="M368 0L315 0L284 86Z" fill="#006443" stroke="#006443"></path><path d="M284 86L173 78L214 215Z" fill="#006443" stroke="#006443"></path><path d="M670 362L720 239L661 287Z" fill="#013226" stroke="#013226"></path><path d="M661 287L720 239L616 208Z" fill="#003e2e" stroke="#003e2e"></path><path d="M714 526L796 377L670 362Z" fill="#009a59" stroke="#009a59"></path><path d="M536 600L607 472L481 477Z" fill="#007f4f" stroke="#007f4f"></path><path d="M714 60L609 0L591 62Z" fill="#007f4f" stroke="#007f4f"></path><path d="M591 62L609 0L519 0Z" fill="#009a59" stroke="#009a59"></path><path d="M114 273L190 421L223 283Z" fill="#009a59" stroke="#009a59"></path><path d="M223 283L190 421L270 326Z" fill="#001c16" stroke="#001c16"></path><path d="M274 410L267 527L434 498Z" fill="#007f4f" stroke="#007f4f"></path><path d="M219 0L173 78L284 86Z" fill="#013226" stroke="#013226"></path><path d="M214 215L114 273L223 283Z" fill="#008c54" stroke="#008c54"></path><path d="M68 237L114 273L214 215Z" fill="#007f4f" stroke="#007f4f"></path><path d="M315 0L219 0L284 86Z" fill="#009a59" stroke="#009a59"></path><path d="M720 239L714 60L616 208Z" fill="#008c54" stroke="#008c54"></path><path d="M190 421L267 527L274 410Z" fill="#004a35" stroke="#004a35"></path><path d="M434 498L536 600L481 477Z" fill="#009a59" stroke="#009a59"></path><path d="M806 276L791 218L720 239Z" fill="#013226" stroke="#013226"></path><path d="M720 239L791 218L714 60Z" fill="#007f4f" stroke="#007f4f"></path><path d="M806 276L720 239L670 362Z" fill="#013226" stroke="#013226"></path><path d="M768 0L709 0L714 60Z" fill="#009a59" stroke="#009a59"></path><path d="M714 60L709 0L609 0Z" fill="#008c54" stroke="#008c54"></path><path d="M267 527L369 600L434 498Z" fill="#001c16" stroke="#001c16"></path><path d="M796 377L806 276L670 362Z" fill="#006443" stroke="#006443"></path><path d="M369 600L536 600L434 498Z" fill="#001c16" stroke="#001c16"></path><path d="M714 526L670 362L623 418Z" fill="#007149" stroke="#007149"></path><path d="M63 112L214 215L173 78Z" fill="#007149" stroke="#007149"></path><path d="M63 112L68 237L214 215Z" fill="#001c16" stroke="#001c16"></path><path d="M114 273L91 421L190 421Z" fill="#006443" stroke="#006443"></path><path d="M267 527L321 600L369 600Z" fill="#02271e" stroke="#02271e"></path><path d="M714 526L623 418L607 472Z" fill="#001c16" stroke="#001c16"></path><path d="M536 600L574 600L607 472Z" fill="#009a59" stroke="#009a59"></path><path d="M791 218L786 63L714 60Z" fill="#007f4f" stroke="#007f4f"></path><path d="M900 67L786 63L791 218Z" fill="#004a35" stroke="#004a35"></path><path d="M0 360L91 421L114 273Z" fill="#004a35" stroke="#004a35"></path><path d="M190 421L161 523L267 527Z" fill="#02271e" stroke="#02271e"></path><path d="M267 527L203 600L321 600Z" fill="#007f4f" stroke="#007f4f"></path><path d="M661 600L714 526L607 472Z" fill="#00573c" stroke="#00573c"></path><path d="M111 467L161 523L190 421Z" fill="#004a35" stroke="#004a35"></path><path d="M91 421L111 467L190 421Z" fill="#009a59" stroke="#009a59"></path><path d="M65 0L63 112L173 78Z" fill="#007149" stroke="#007149"></path><path d="M786 63L768 0L714 60Z" fill="#008c54" stroke="#008c54"></path><path d="M574 600L661 600L607 472Z" fill="#009a59" stroke="#009a59"></path><path d="M110 600L203 600L161 523Z" fill="#013226" stroke="#013226"></path><path d="M161 523L203 600L267 527Z" fill="#006443" stroke="#006443"></path><path d="M772 600L796 503L714 526Z" fill="#00573c" stroke="#00573c"></path><path d="M714 526L796 503L796 377Z" fill="#00573c" stroke="#00573c"></path><path d="M900 261L900 225L806 276Z" fill="#003e2e" stroke="#003e2e"></path><path d="M91 421L0 516L111 467Z" fill="#004a35" stroke="#004a35"></path><path d="M68 237L0 295L114 273Z" fill="#02271e" stroke="#02271e"></path><path d="M0 165L0 295L68 237Z" fill="#006443" stroke="#006443"></path><path d="M219 0L65 0L173 78Z" fill="#006443" stroke="#006443"></path><path d="M63 112L0 165L68 237Z" fill="#009a59" stroke="#009a59"></path><path d="M0 69L0 165L63 112Z" fill="#008c54" stroke="#008c54"></path><path d="M0 295L0 360L114 273Z" fill="#004a35" stroke="#004a35"></path><path d="M111 467L110 600L161 523Z" fill="#006443" stroke="#006443"></path><path d="M900 261L806 276L900 390Z" fill="#004a35" stroke="#004a35"></path><path d="M806 276L900 225L791 218Z" fill="#004a35" stroke="#004a35"></path><path d="M786 63L900 0L768 0Z" fill="#008c54" stroke="#008c54"></path><path d="M900 390L806 276L796 377Z" fill="#009a59" stroke="#009a59"></path><path d="M65 0L0 69L63 112Z" fill="#008c54" stroke="#008c54"></path><path d="M796 503L900 390L796 377Z" fill="#004a35" stroke="#004a35"></path><path d="M0 516L110 600L111 467Z" fill="#004a35" stroke="#004a35"></path><path d="M661 600L772 600L714 526Z" fill="#013226" stroke="#013226"></path><path d="M796 503L900 534L900 390Z" fill="#013226" stroke="#013226"></path><path d="M900 225L900 67L791 218Z" fill="#007f4f" stroke="#007f4f"></path><path d="M65 0L0 0L0 69Z" fill="#00573c" stroke="#00573c"></path><path d="M0 360L0 516L91 421Z" fill="#00573c" stroke="#00573c"></path><path d="M900 67L900 0L786 63Z" fill="#006443" stroke="#006443"></path><path d="M772 600L900 534L796 503Z" fill="#00573c" stroke="#00573c"></path><path d="M0 516L0 600L110 600Z" fill="#007149" stroke="#007149"></path><path d="M772 600L900 600L900 534Z" fill="#007f4f" stroke="#007f4f"></path></g></svg>